<svg width="836" height="840" viewBox="0 0 836 840" fill="none" xmlns="http://www.w3.org/2000/svg">
<g filter="url(#filter0_d_305_145)">
<circle cx="428" cy="408" r="408" fill="#000677"/>
</g>
<circle cx="428" cy="408" r="408" fill="#000677"/>
<circle cx="428" cy="408" r="391.5" stroke="white" stroke-width="7"/>
<path d="M124.138 453.27C101.135 496.292 82.7893 561.384 213.476 530.04C343.45 498.867 530.873 443.306 648.932 410.381C718.739 390.912 772.218 391.11 760.554 446.695" stroke="white" stroke-width="24" stroke-linecap="round"/>
<path d="M205.225 489.056C198.613 490.86 194.634 489.292 193.286 484.353C192.498 481.465 192.425 477.157 193.067 471.429C193.764 465.605 194.958 458.46 196.65 449.997C197.548 445.506 198.618 440.6 199.861 435.28C201.084 429.884 202.323 424.401 203.58 418.832C206.273 407.156 207.765 400.502 208.055 398.871C208.158 397.455 208.241 396.861 208.303 397.089C208.345 397.241 208.338 396.916 208.283 396.115L206.231 396.674C203.343 397.462 200.963 397.867 199.09 397.888C197.218 397.909 196.074 397.159 195.66 395.639C195.411 394.727 195.462 393.57 195.815 392.167C196.83 387.808 198.346 384.536 200.363 382.352C202.436 380.072 204.608 378.459 206.881 377.512C209.154 376.565 211.051 375.884 212.571 375.47L218.04 347.031C220.408 335.361 223.53 325.854 227.405 318.509C231.356 311.144 236.496 305.291 242.824 300.951C249.208 296.515 257.264 292.97 266.991 290.316C270.335 289.403 273.358 288.66 276.059 288.086C278.816 287.416 281.203 286.887 283.22 286.5C285.238 286.113 286.962 285.847 288.392 285.701C289.898 285.535 291.052 285.425 291.853 285.369C295.121 285.376 297.643 286.239 299.419 287.959C301.25 289.583 302.497 291.611 303.161 294.042C304.177 297.766 303.956 301.746 302.499 305.981C301.021 310.141 298.838 312.615 295.95 313.403C295.038 313.651 294.275 313.696 293.66 313.538C289.728 312.895 286.54 312.581 284.094 312.596C281.703 312.513 278 313.156 272.984 314.524C270.4 315.229 267.343 316.145 263.813 317.272C260.337 318.302 256.085 319.625 251.055 321.243L239.391 365.58C244.476 362.069 250.51 358.749 257.495 355.618C264.48 352.488 271.126 350.062 277.434 348.341C283.21 346.765 287.514 346.08 290.347 346.287C293.104 346.515 294.866 348.035 295.633 350.847C295.799 351.455 296.01 352.377 296.265 353.614C296.5 354.774 296.407 356.229 295.986 357.977C295.344 362.806 294.277 366.078 292.785 367.792C291.348 369.408 288.957 370.673 285.614 371.585C271.45 374.143 260.607 376.449 253.083 378.502C245.711 380.513 239.628 382.908 234.833 385.686C234.191 387.821 233.269 391.175 232.067 395.749C230.865 400.323 229.581 405.491 228.214 411.254C226.791 417.113 225.413 423.286 224.081 429.774C222.748 436.262 221.581 442.459 220.58 448.367C218.391 461.294 216.039 471.081 213.525 477.728C210.804 484.513 208.037 488.289 205.225 489.056ZM314.795 457.078C312.211 457.783 308.936 457.901 304.97 457.432C301.004 456.962 297.197 455.429 293.549 452.832C289.976 450.213 287.423 446.092 285.889 440.469C284.603 435.757 284.06 429.577 284.259 421.928C284.459 414.28 285.905 406.414 288.599 398.33C291.251 390.094 295.479 382.694 301.282 376.129C307.161 369.544 314.774 364.976 324.122 362.426C327.466 361.513 330.506 361.133 333.242 361.285C335.978 361.437 338.354 361.768 340.372 362.279C341.526 362.617 342.614 363.015 343.637 363.47C344.715 363.83 345.737 364.285 346.705 364.838L350.166 361.811C351.16 360.968 352.214 360.191 353.326 359.479C354.494 358.671 355.534 358.142 356.446 357.893C359.334 357.105 361.907 357.261 364.167 358.359C366.426 359.457 367.815 360.956 368.333 362.856C368.499 363.464 368.575 363.893 368.561 364.141C368.61 366.414 368.42 369.61 367.992 373.728C367.641 377.825 367.289 382.371 366.937 387.366C366.544 392.21 366.337 396.839 366.317 401.254C366.372 405.648 366.763 409.175 367.489 411.835C368.111 414.115 369.009 415.911 370.184 417.224C371.338 418.46 372.827 418.83 374.651 418.332C376.855 417.731 379.477 415.668 382.516 412.144C385.535 408.544 388.544 404.457 391.542 399.883C393.151 397.402 394.806 394.787 396.505 392.037C398.184 389.211 399.869 386.261 401.561 383.186C402.508 381.866 403.551 381.051 404.691 380.74C406.211 380.325 407.672 380.743 409.075 381.993C410.533 383.147 411.511 384.636 412.008 386.46C412.589 388.588 412.354 390.571 411.304 392.409C409.032 396.05 406.735 399.902 404.414 403.965C402.093 408.028 398.753 413.144 394.394 419.315C390.498 424.787 386.294 429.731 381.783 434.146C377.251 438.486 372.857 441.236 368.601 442.397C363.281 443.849 358.846 442.854 355.294 439.414C351.722 435.898 349.293 431.784 348.007 427.072C347.074 423.652 346.738 420.477 347.001 417.548C345.025 422.578 342.521 427.915 339.489 433.56C336.436 439.129 332.854 444.108 328.743 448.496C324.612 452.807 319.963 455.668 314.795 457.078ZM318.44 434.527C320.872 433.863 323.487 431.476 326.285 427.364C329.158 423.232 331.735 418.61 334.014 413.497C336.57 407.9 338.442 402.939 339.63 398.614C340.818 394.289 341.235 391.48 340.883 390.188C340.095 387.3 337.801 385.477 334.001 384.717C330.18 383.881 326.94 383.827 324.28 384.552C319.568 385.838 315.499 388.581 312.072 392.782C308.722 396.963 306.37 401.81 305.016 407.323C303.642 412.761 303.649 418.026 305.039 423.118C305.847 426.082 307.219 429.014 309.154 431.916C311.165 434.797 314.26 435.667 318.44 434.527ZM425.349 426.914C417.597 429.029 411.02 428.415 405.616 425.071C400.192 421.652 396.62 416.788 394.899 410.481C393.489 405.313 393.529 398.728 395.021 390.727C396.568 382.63 399.278 374.459 403.154 366.216C407.063 357.801 411.989 350.414 417.93 344.057C423.926 337.603 430.496 333.402 437.64 331.453C441.136 330.499 444.241 330.509 446.957 331.483C449.748 332.436 451.662 334.812 452.699 338.612C453.57 341.804 454.04 345.473 454.11 349.618C454.159 353.688 453.465 357.429 452.028 360.843C450.571 364.18 447.98 366.356 444.256 367.372C442.736 367.787 441.686 367.829 441.105 367.497C440.601 367.145 440.193 366.399 439.882 365.259L439.156 362.15L438.13 358.388C437.757 357.02 437.256 355.932 436.627 355.123C435.977 354.239 434.893 354.004 433.373 354.419C430.941 355.083 428.416 357.201 425.798 360.773C423.159 364.269 420.758 368.639 418.596 373.884C416.621 378.914 415.177 383.799 414.266 388.538C413.334 393.202 413.251 396.94 414.018 399.752C414.744 402.412 416.226 404.253 418.465 405.275C420.78 406.277 423.533 406.342 426.725 405.471C431.741 404.103 436.929 401.421 442.29 397.427C447.651 393.433 452.605 389.142 457.15 384.554C461.565 380.083 465.385 375.979 468.611 372.241C471.913 368.482 473.893 366.309 474.549 365.721C475.751 364.74 476.808 364.125 477.72 363.876C479.62 363.358 481.098 363.689 482.156 364.871C483.213 366.052 483.876 367.137 484.146 368.125C484.332 368.809 484.485 369.665 484.602 370.695C484.699 371.648 484.419 372.868 483.763 374.353C483.052 375.935 480.941 379.124 477.432 383.92C473.923 388.715 469.957 393.635 465.536 398.679C460.258 404.773 454.065 410.505 446.956 415.874C439.847 421.243 432.645 424.923 425.349 426.914ZM491.444 408.88C485.44 410.518 480.856 410.177 477.692 407.855C474.527 405.534 472.354 402.208 471.172 397.876C470.135 394.076 469.703 389.948 469.875 385.492C470.047 381.035 470.485 376.955 471.19 373.252L477.062 342.254L472.161 343.591C467.905 344.752 464.792 344.867 462.823 343.934C460.854 343.002 459.631 341.661 459.154 339.913C458.677 338.165 459.126 335.92 460.5 333.177C461.854 330.358 464.241 328.482 467.661 327.549L479.973 324.189L490.993 269.862C491.725 266.559 493.028 263.999 494.9 262.182C496.827 260.268 499.007 258.979 501.439 258.315C503.719 257.693 505.975 257.731 508.206 258.429C510.438 259.126 511.937 260.881 512.705 263.693C513.099 265.137 513.161 266.712 512.892 268.419C512.678 270.029 512.308 271.967 511.784 274.233C511.19 276.845 510.395 280.368 509.401 284.804C508.386 289.164 507.094 294.456 505.527 300.682L501.518 318.311L538.681 308.171C542.329 307.176 545.428 306.861 547.977 307.227C550.582 307.496 552.33 309.264 553.222 312.532C553.678 314.204 553.516 316.004 552.735 317.932C551.955 319.86 549.592 321.525 545.647 322.928L498.224 335.867L494.599 354.004L491.481 370.41C491.067 372.483 490.736 374.86 490.487 377.54C490.294 380.124 490.446 382.328 490.944 384.152C491.566 386.432 492.941 387.282 495.069 386.701C497.501 386.038 500.489 384.12 504.033 380.948C507.577 377.777 511.225 374.087 514.976 369.879C518.803 365.65 522.409 361.359 525.794 357.006C529.158 352.577 532.212 348.355 534.954 344.341C536.018 343.152 537.044 342.423 538.032 342.153C539.704 341.697 541.207 342.267 542.54 343.863C543.874 345.459 544.551 347.642 544.572 350.413C544.669 353.162 543.557 356.12 541.236 359.284C537.52 365.116 533.665 370.74 529.672 376.158C525.735 381.478 521.721 386.37 517.631 390.834C513.445 395.242 509.169 399.022 504.802 402.173C500.457 405.4 496.004 407.636 491.444 408.88ZM552.41 392.246C546.178 393.946 541.459 393.56 538.253 391.087C535.123 388.593 532.946 385.104 531.723 380.62C530.707 376.896 530.202 372.951 530.208 368.785C530.27 364.522 530.615 360.549 531.243 356.866C532.286 350.213 533.377 343.587 534.516 336.989C535.655 330.39 536.701 324.348 537.654 318.862L552.133 235.91C552.844 231.633 554.792 228.448 557.977 226.354C561.162 224.26 564.385 223.503 567.646 224.083C570.963 224.566 573.098 226.556 574.052 230.052C574.425 231.42 574.477 232.957 574.208 234.664C574.014 236.349 573.662 238.201 573.151 240.219C571.825 246.133 570.185 253.889 568.231 263.486C566.353 273.062 564.309 283.827 562.099 295.78C559.724 308.921 557.715 319.962 556.071 328.902C554.483 337.746 553.009 346.11 551.649 353.993C551.29 355.969 551.014 358.25 550.821 360.834C550.683 363.321 550.863 365.476 551.36 367.3C552.045 369.808 553.489 370.762 555.693 370.16C558.125 369.497 561.085 367.628 564.574 364.553C568.118 361.381 571.679 357.674 575.257 353.431C578.933 349.244 582.425 344.984 585.734 340.652C589.022 336.243 592.037 332.032 594.78 328.017C595.726 326.698 597.035 325.81 598.707 325.353C602.203 324.4 604.48 325.861 605.537 329.736C605.973 331.332 605.928 333.263 605.403 335.53C604.878 337.796 603.545 340.242 601.404 342.868C597.763 348.679 594.023 354.272 590.182 359.648C586.396 364.927 582.459 369.798 578.369 374.262C574.334 378.629 570.134 382.388 565.768 385.539C561.422 388.766 556.97 391.002 552.41 392.246ZM622.267 373.185C616.187 374.844 610.577 374.783 605.436 373.001C600.351 371.122 596.005 368.062 592.398 363.82C588.846 359.481 586.303 354.5 584.769 348.876C583.421 343.936 583.323 338.043 584.476 331.196C585.685 324.252 588.182 317.243 591.967 310.167C595.752 303.092 600.833 296.725 607.21 291.065C613.642 285.309 621.227 281.239 629.967 278.854C636.275 277.133 641.402 277.368 645.347 279.557C649.292 281.747 652.001 285.54 653.473 290.936C654.344 294.128 654.421 297.7 653.703 301.652C652.984 305.604 651.061 309.926 647.931 314.617C644.823 319.385 640.329 324.612 634.45 330.299C628.626 335.889 621.065 341.994 611.766 348.614C613.888 353.098 618.33 354.417 625.094 352.572C630.338 351.141 635.71 348.532 641.209 344.745C646.687 340.882 651.855 336.778 656.711 332.431C661.589 328.161 665.71 324.26 669.074 320.73C672.438 317.199 674.459 315.177 675.136 314.666C675.696 314.023 676.231 313.592 676.742 313.37C677.33 313.129 677.851 312.945 678.307 312.821C680.131 312.323 681.582 312.703 682.66 313.961C683.793 315.121 684.484 316.157 684.733 317.069C684.92 317.753 685.072 318.61 685.189 319.64C685.286 320.593 685.007 321.812 684.35 323.298C683.632 324.556 681.335 327.509 677.459 332.16C673.584 336.81 669.335 341.44 664.714 346.048C659.042 351.597 652.507 356.973 645.107 362.177C637.708 367.38 630.095 371.05 622.267 373.185ZM606.479 335.971C610.714 332.039 614.911 327.669 619.069 322.86C623.283 317.954 626.503 314.34 628.727 312.018C631.677 308.764 633.483 306.107 634.147 304.048C634.92 301.795 635.131 300.023 634.778 298.731C634.467 297.591 633.838 296.783 632.892 296.306C632.021 295.809 631.109 295.609 630.156 295.706L629.099 295.872L628.073 296.151C623.893 297.292 620.349 299.565 617.44 302.972C614.587 306.282 612.432 310.054 610.974 314.29C609.407 318.719 608.271 322.785 607.566 326.488C606.938 330.171 606.576 333.332 606.479 335.971Z" fill="white"/>
<path d="M334.471 584.879C332.596 584.879 330.99 584.422 329.654 583.508C328.342 582.57 327.334 581.352 326.631 579.852C325.951 578.328 325.611 576.699 325.611 574.965C325.611 573.441 326.045 571.742 326.912 569.867C327.803 567.969 329.068 566.152 330.709 564.418C332.349 562.684 334.306 561.254 336.58 560.129C338.877 558.98 341.373 558.406 344.068 558.406C346.014 558.406 347.467 558.875 348.428 559.812C349.389 560.75 349.869 562.051 349.869 563.715C349.869 564.699 349.611 565.73 349.096 566.809C348.58 567.887 347.689 568.977 346.424 570.078C345.158 571.203 343.459 572.352 341.326 573.523C339.217 574.672 336.568 575.832 333.381 577.004C333.639 578.457 334.81 579.184 336.896 579.184C338.514 579.184 340.26 578.855 342.135 578.199C344.01 577.52 345.814 576.746 347.549 575.879C349.283 575.035 350.771 574.238 352.014 573.488C353.256 572.738 353.994 572.316 354.228 572.223C354.439 572.082 354.627 572 354.791 571.977C354.978 571.953 355.142 571.941 355.283 571.941C355.846 571.941 356.232 572.164 356.443 572.609C356.678 573.031 356.795 573.383 356.795 573.664C356.795 573.875 356.771 574.133 356.724 574.438C356.678 574.719 356.502 575.047 356.197 575.422C355.892 575.727 355.002 576.395 353.525 577.426C352.049 578.457 350.467 579.453 348.779 580.414C346.717 581.562 344.42 582.594 341.889 583.508C339.357 584.422 336.885 584.879 334.471 584.879ZM332.853 572.961C334.377 572.164 335.924 571.238 337.494 570.184C339.088 569.105 340.295 568.32 341.115 567.828C342.217 567.125 342.943 566.504 343.295 565.965C343.693 565.379 343.892 564.887 343.892 564.488C343.892 564.137 343.775 563.855 343.541 563.645C343.33 563.434 343.084 563.305 342.803 563.258L342.486 563.223H342.17C340.881 563.223 339.685 563.598 338.584 564.348C337.506 565.074 336.592 565.988 335.842 567.09C335.045 568.238 334.4 569.316 333.908 570.324C333.439 571.332 333.088 572.211 332.853 572.961ZM358.82 584.879C356.359 584.879 354.121 584.328 352.105 583.227C350.089 582.102 348.8 580.332 348.238 577.918C348.191 577.684 348.168 577.531 348.168 577.461C348.168 576.828 348.39 576.289 348.836 575.844C349.281 575.375 349.773 575.141 350.312 575.141C350.57 575.141 350.851 575.188 351.156 575.281C351.484 575.375 351.73 575.586 351.894 575.914C352.504 577.016 353.546 577.906 355.023 578.586C356.523 579.242 357.988 579.57 359.418 579.57C360.941 579.57 362.265 579.277 363.39 578.691C364.539 578.105 365.113 577.145 365.113 575.809C365.113 574.168 364.644 572.715 363.707 571.449C362.793 570.184 361.632 569.047 360.226 568.039C358.843 567.008 357.449 566.059 356.043 565.191C355.925 565.121 355.75 564.922 355.515 564.594C355.281 564.242 355.164 563.891 355.164 563.539C355.164 563.258 355.234 563.035 355.375 562.871C356.125 561.863 357.086 560.879 358.257 559.918C359.429 558.957 360.718 558.477 362.125 558.477C363.156 558.477 364 558.734 364.656 559.25C365.336 559.742 365.675 560.234 365.675 560.727C365.675 561.383 365.371 562.004 364.761 562.59C364.152 563.152 363.519 563.691 362.863 564.207C365.652 565.66 367.867 567.512 369.507 569.762C371.148 571.988 371.968 574.168 371.968 576.301C371.968 578.105 371.312 579.652 370 580.941C368.711 582.207 367.058 583.18 365.043 583.859C363.05 584.539 360.976 584.879 358.82 584.879ZM376.841 584.879C374.99 584.879 373.701 584.422 372.974 583.508C372.247 582.594 371.884 581.469 371.884 580.133C371.884 578.961 372.083 577.742 372.482 576.477C372.88 575.211 373.326 574.074 373.818 573.066L377.931 564.629H376.419C375.107 564.629 374.204 564.418 373.712 563.996C373.22 563.574 372.974 563.094 372.974 562.555C372.974 562.016 373.279 561.406 373.888 560.727C374.497 560.023 375.329 559.672 376.384 559.672H380.181L387.599 544.941C388.068 544.051 388.642 543.418 389.322 543.043C390.025 542.645 390.751 542.445 391.501 542.445C392.204 542.445 392.849 542.633 393.435 543.008C394.021 543.383 394.314 544.004 394.314 544.871C394.314 545.316 394.208 545.773 393.997 546.242C393.81 546.688 393.552 547.215 393.224 547.824C392.849 548.527 392.345 549.477 391.712 550.672C391.079 551.844 390.294 553.262 389.357 554.926L386.826 559.672H398.286C399.411 559.672 400.326 559.824 401.029 560.129C401.755 560.41 402.119 561.055 402.119 562.062C402.119 562.578 401.931 563.082 401.556 563.574C401.181 564.066 400.372 564.359 399.13 564.453H384.505L382.044 569.375L379.865 573.84C379.583 574.402 379.302 575.059 379.021 575.809C378.763 576.535 378.634 577.18 378.634 577.742C378.634 578.445 378.962 578.797 379.619 578.797C380.369 578.797 381.376 578.48 382.642 577.848C383.908 577.215 385.244 576.441 386.65 575.527C388.079 574.613 389.451 573.664 390.763 572.68C392.076 571.672 393.283 570.699 394.384 569.762C394.783 569.504 395.134 569.375 395.439 569.375C395.954 569.375 396.341 569.656 396.599 570.219C396.857 570.781 396.88 571.461 396.669 572.258C396.482 573.055 395.931 573.816 395.017 574.543C393.494 575.926 391.947 577.238 390.376 578.48C388.829 579.699 387.294 580.789 385.771 581.75C384.224 582.688 382.701 583.438 381.201 584C379.701 584.586 378.247 584.879 376.841 584.879ZM429.056 584.844C428.306 584.844 427.567 584.797 426.841 584.703C426.114 584.633 425.317 584.469 424.45 584.211C423.583 583.953 422.61 583.578 421.532 583.086C420.454 582.594 419.177 581.938 417.7 581.117C415.895 582.266 414.477 583.156 413.446 583.789C412.438 584.422 411.735 584.738 411.337 584.738C410.798 584.738 410.235 584.422 409.649 583.789C409.063 583.156 408.77 582.453 408.77 581.68C408.77 580.93 409.11 580.309 409.79 579.816C412.227 578.504 414.571 577.121 416.821 575.668C419.095 574.215 421.239 572.633 423.255 570.922C425.177 569.281 426.735 567.617 427.931 565.93C429.126 564.219 429.724 562.566 429.724 560.973C429.724 559.918 429.466 559.18 428.95 558.758C428.434 558.312 427.755 558.09 426.911 558.09C425.903 558.09 424.79 558.336 423.571 558.828C422.352 559.32 421.157 559.871 419.985 560.48C418.837 561.09 417.794 561.652 416.856 562.168C415.942 562.66 415.263 562.906 414.817 562.906C414.067 562.906 413.434 562.613 412.919 562.027C412.427 561.441 412.181 560.797 412.181 560.094C412.181 559.227 412.755 558.324 413.903 557.387C415.052 556.449 416.481 555.594 418.192 554.82C419.974 554.023 421.778 553.391 423.606 552.922C425.434 552.43 427.087 552.184 428.563 552.184C430.907 552.184 432.876 552.805 434.47 554.047C436.087 555.289 436.895 557.422 436.895 560.445C436.895 561.734 436.684 563.023 436.263 564.312C435.864 565.578 435.126 566.902 434.048 568.285C432.97 569.645 431.505 571.062 429.653 572.539C427.825 573.992 425.481 575.527 422.622 577.145C423.63 577.59 424.708 577.965 425.856 578.27C427.005 578.574 428.036 578.727 428.95 578.727C430.309 578.727 431.434 578.668 432.325 578.551C433.239 578.434 434.282 578.293 435.454 578.129C435.688 578.082 435.841 578.059 435.911 578.059C436.403 578.059 436.813 578.246 437.141 578.621C437.47 578.996 437.634 579.453 437.634 579.992C437.634 581.023 437.165 581.902 436.227 582.629C435.313 583.355 434.188 583.906 432.852 584.281C431.54 584.656 430.274 584.844 429.056 584.844ZM451.366 584.879C448.46 584.879 446.151 583.848 444.44 581.785C442.753 579.699 441.909 576.992 441.909 573.664C441.909 571.438 442.366 569.094 443.28 566.633C444.217 564.148 445.53 561.805 447.217 559.602C448.881 557.422 450.874 555.641 453.194 554.258C455.514 552.875 457.987 552.184 460.612 552.184C463.471 552.184 465.768 553.18 467.503 555.172C469.26 557.164 470.139 559.73 470.139 562.871C470.139 565.121 469.694 567.523 468.803 570.078C467.913 572.609 466.624 575.012 464.936 577.285C463.272 579.535 461.268 581.363 458.924 582.77C456.604 584.176 454.085 584.879 451.366 584.879ZM452.35 579.5C454.131 579.5 455.725 578.926 457.131 577.777C458.561 576.605 459.756 575.129 460.717 573.348C461.655 571.566 462.358 569.75 462.827 567.898C463.296 566.047 463.53 564.371 463.53 562.871C463.53 561.207 463.225 560.012 462.616 559.285C462.006 558.559 461.221 558.195 460.26 558.195C458.221 558.195 456.299 558.934 454.495 560.41C452.69 561.887 451.225 563.785 450.1 566.105C448.975 568.402 448.413 570.828 448.413 573.383C448.413 574.953 448.682 576.371 449.221 577.637C449.784 578.879 450.827 579.5 452.35 579.5ZM491.536 584.844C490.786 584.844 490.047 584.797 489.321 584.703C488.594 584.633 487.797 584.469 486.93 584.211C486.063 583.953 485.09 583.578 484.012 583.086C482.934 582.594 481.657 581.938 480.18 581.117C478.375 582.266 476.957 583.156 475.926 583.789C474.918 584.422 474.215 584.738 473.817 584.738C473.278 584.738 472.715 584.422 472.129 583.789C471.543 583.156 471.25 582.453 471.25 581.68C471.25 580.93 471.59 580.309 472.27 579.816C474.707 578.504 477.051 577.121 479.301 575.668C481.575 574.215 483.719 572.633 485.735 570.922C487.657 569.281 489.215 567.617 490.411 565.93C491.606 564.219 492.204 562.566 492.204 560.973C492.204 559.918 491.946 559.18 491.43 558.758C490.914 558.312 490.235 558.09 489.391 558.09C488.383 558.09 487.27 558.336 486.051 558.828C484.832 559.32 483.637 559.871 482.465 560.48C481.317 561.09 480.274 561.652 479.336 562.168C478.422 562.66 477.743 562.906 477.297 562.906C476.547 562.906 475.914 562.613 475.399 562.027C474.907 561.441 474.661 560.797 474.661 560.094C474.661 559.227 475.235 558.324 476.383 557.387C477.532 556.449 478.961 555.594 480.672 554.82C482.454 554.023 484.258 553.391 486.086 552.922C487.914 552.43 489.567 552.184 491.043 552.184C493.387 552.184 495.356 552.805 496.95 554.047C498.567 555.289 499.375 557.422 499.375 560.445C499.375 561.734 499.164 563.023 498.743 564.312C498.344 565.578 497.606 566.902 496.528 568.285C495.45 569.645 493.985 571.062 492.133 572.539C490.305 573.992 487.961 575.527 485.102 577.145C486.11 577.59 487.188 577.965 488.336 578.27C489.485 578.574 490.516 578.727 491.43 578.727C492.789 578.727 493.914 578.668 494.805 578.551C495.719 578.434 496.762 578.293 497.934 578.129C498.168 578.082 498.321 578.059 498.391 578.059C498.883 578.059 499.293 578.246 499.621 578.621C499.95 578.996 500.114 579.453 500.114 579.992C500.114 581.023 499.645 581.902 498.707 582.629C497.793 583.355 496.668 583.906 495.332 584.281C494.02 584.656 492.754 584.844 491.536 584.844ZM515.639 584.844C512.451 584.844 509.873 583.766 507.904 581.609C505.959 579.453 504.986 576.734 504.986 573.453C504.986 571.719 505.42 569.562 506.287 566.984C507.178 564.383 508.549 561.559 510.401 558.512C511.643 556.473 513.131 554.422 514.865 552.359C516.6 550.273 518.592 548.234 520.842 546.242C521.944 545.234 523.127 544.262 524.393 543.324C525.658 542.387 526.983 541.484 528.365 540.617C528.67 540.383 529.057 540.266 529.526 540.266C530.322 540.266 531.026 540.582 531.635 541.215C532.268 541.824 532.584 542.504 532.584 543.254C532.584 544.145 532.139 544.895 531.248 545.504C529.045 546.98 527.123 548.457 525.483 549.934C523.865 551.387 522.471 552.781 521.299 554.117C520.127 555.453 519.154 556.695 518.381 557.844C517.631 558.969 517.022 559.918 516.553 560.691C519.342 559.402 522.178 558.758 525.061 558.758C527.287 558.758 529.197 559.379 530.791 560.621C532.408 561.84 533.217 563.914 533.217 566.844C533.217 569.164 532.748 571.414 531.811 573.594C530.897 575.75 529.596 577.695 527.908 579.43C524.369 583.039 520.279 584.844 515.639 584.844ZM516.377 578.797C517.619 578.797 518.85 578.434 520.069 577.707C521.287 576.957 522.389 575.996 523.373 574.824C524.358 573.629 525.143 572.352 525.729 570.992C526.315 569.633 526.608 568.344 526.608 567.125C526.608 566.023 526.256 565.238 525.553 564.77C524.873 564.277 523.971 564.031 522.846 564.031C521.486 564.031 519.94 564.348 518.205 564.98C516.471 565.613 514.795 566.445 513.178 567.477C512.053 569.938 511.49 572.164 511.49 574.156C511.49 575.516 511.936 576.629 512.826 577.496C513.717 578.363 514.901 578.797 516.377 578.797Z" fill="white"/>
<path d="M749.778 496.791C750.292 494.928 752.219 493.834 754.082 494.347C755.946 494.86 757.041 496.787 756.527 498.65C724.192 616.057 630.586 708.057 512.268 738.07L511.345 738.428L510.019 738.634C483.853 745.08 456.498 748.5 428.343 748.5C288.003 748.5 198.884 679.272 137.788 589.409C136.701 587.811 137.116 585.634 138.715 584.547C140.313 583.46 142.49 583.875 143.577 585.474C203.71 673.919 290.866 741.5 428.343 741.5C438.272 741.5 448.099 741.064 457.808 740.214L484.815 639.42L559.915 714.521C652.056 674.889 722.758 594.898 749.778 496.791ZM428.343 67.5C603.065 67.5 747.034 199.189 766.487 368.759C766.707 370.679 765.329 372.414 763.408 372.635C761.488 372.855 759.753 371.477 759.532 369.557C740.479 203.478 599.465 74.5 428.343 74.5C418.499 74.5 408.755 74.905 399.13 75.7021C399.123 75.73 399.118 75.7583 399.11 75.7861L368.773 189.004L285.893 106.123C285.76 105.991 285.644 105.85 285.542 105.703C173.113 158.485 95.5098 274.853 95.5098 428.789C95.5097 430.722 93.9427 432.289 92.0098 432.289C90.0768 432.289 88.5098 430.722 88.5098 428.789C88.5098 211.949 240.263 67.5001 428.343 67.5Z" fill="white"/>
<defs>
<filter id="filter0_d_305_145" x="0" y="0" width="836" height="840" filterUnits="userSpaceOnUse" color-interpolation-filters="sRGB">
<feFlood flood-opacity="0" result="BackgroundImageFix"/>
<feColorMatrix in="SourceAlpha" type="matrix" values="0 0 0 0 0 0 0 0 0 0 0 0 0 0 0 0 0 0 127 0" result="hardAlpha"/>
<feOffset dx="-10" dy="12"/>
<feGaussianBlur stdDeviation="5"/>
<feComposite in2="hardAlpha" operator="out"/>
<feColorMatrix type="matrix" values="0 0 0 0 0 0 0 0 0 0 0 0 0 0 0 0 0 0 0.25 0"/>
<feBlend mode="normal" in2="BackgroundImageFix" result="effect1_dropShadow_305_145"/>
<feBlend mode="normal" in="SourceGraphic" in2="effect1_dropShadow_305_145" result="shape"/>
</filter>
</defs>
</svg>
